<?xml version="1.0" encoding="UTF-8" standalone="no"?>
<svg
   width="180"
   height="180"
   fill="none"
   version="1.1"
   id="svg3"
   sodipodi:docname="icon.svg"
   inkscape:version="1.4.2 (1:1.4.2+202505120738+ebf0e940d0)"
   xmlns:inkscape="http://www.inkscape.org/namespaces/inkscape"
   xmlns:sodipodi="http://sodipodi.sourceforge.net/DTD/sodipodi-0.dtd"
   xmlns="http://www.w3.org/2000/svg"
   xmlns:svg="http://www.w3.org/2000/svg">
  <defs
     id="defs3" />
  <sodipodi:namedview
     id="namedview3"
     pagecolor="#ffffff"
     bordercolor="#000000"
     borderopacity="0.25"
     inkscape:showpageshadow="2"
     inkscape:pageopacity="0.0"
     inkscape:pagecheckerboard="true"
     inkscape:deskcolor="#d1d1d1"
     showborder="true"
     inkscape:zoom="3.6687117"
     inkscape:cx="47.700669"
     inkscape:cy="99.489967"
     inkscape:window-width="2506"
     inkscape:window-height="1376"
     inkscape:window-x="54"
     inkscape:window-y="27"
     inkscape:window-maximized="1"
     inkscape:current-layer="svg3" />
  <rect
     style="fill:#d8b5ff;stroke:none;stroke-width:3.77953;stroke-linecap:round;stroke-linejoin:round;fill-opacity:1"
     id="rect3"
     width="154.72241"
     height="154.72241"
     x="12.638796"
     y="12.638796"
     ry="13.901338" />
  <g
     id="g3"
     transform="translate(22.799883,-2.0501139)">
    <path
       fill="#000000"
       d="m 94,54.3 -14.5,-4.1 -1.1,5.3 -20.1,95.8 -1.2,5.3 1.9,-5.1 33,-92 z M 42.7,101.6 42,98.3 28.2,39.7 l -0.7,-3.2 -14.1,5 1.4,3 26.5,54 1.4,3 z"
       id="path1" />
    <path
       fill="#000000"
       d="m 72.6,100.8 -4,8.2 3,1 51.6,20.2 3,1.2 -2.8,-1.6 -48.2,-27.4 z m -59.2,-59.2 -6.1,-15 80,26 -0.1,12.2 z"
       id="path2" />
    <circle
       cx="3.3781078"
       cy="162.34604"
       r="5.5999999"
       fill="#000000"
       stroke="#000000"
       transform="rotate(-20)"
       id="circle2" />
    <circle
       cx="69.445404"
       cy="162.98065"
       r="5.5999999"
       fill="#000000"
       stroke="#000000"
       transform="rotate(-20)"
       id="circle3" />
    <path
       fill="#000000"
       stroke="#000000"
       d="M 39.2,91.5 A 5.6,5.6 0 1 1 43,102 5.6,5.6 0 0 1 39.2,91.5 Z"
       id="path3" />
  </g>
</svg>
